<?xml version="1.0" standalone="no"?><!DOCTYPE svg PUBLIC "-//W3C//DTD SVG 1.1//EN" "http://www.w3.org/Graphics/SVG/1.1/DTD/svg11.dtd"><svg t="1583544510342" class="icon" viewBox="0 0 1214 1024" version="1.1" xmlns="http://www.w3.org/2000/svg" p-id="1874" xmlns:xlink="http://www.w3.org/1999/xlink" width="237.109375" height="200"><defs><style type="text/css"></style></defs><path d="M344.29948661 42.00518876c-7.06159017 7.06159017-0.16955741 60.52221323 12.47248384 96.74777001a239.9045453 239.9045453 0 0 0 66.52655844 99.8272399l17.52680584 15.69159031-13.48234991 14.56452889c-26.90485695 29.06173289-48.47611753 71.45121989-57.51754661 113.03281307-6.80725223 31.30837614-5.77993174 78.20610886 2.40373305 109.71396445 17.28244273 66.53653326 62.76885526 125.28836062 121.49824262 156.93585401l18.21999832 9.81690565-5.62533353-8.57015607c-31.51783041-48.03476897-39.7862733-109.823679-24.99732974-186.85784398 13.69180418-71.33402575 42.73109584-129.55972525 64.68386331-129.69936061 4.56061019-0.02992204 5.14159533-0.58098514 2.42617427-2.30150053-2.37131822-1.4985935-9.09379114-0.1595838-19.94799331 3.97463825-11.90645911 4.53318215-19.6113713 5.93951554-28.23638585 5.15655573-13.20058516-1.19687911-40.96071119-14.19798482-49.32141421-23.09728332l-5.39842483-5.74751569 8.35571499-4.55811618c11.34542119-6.18886546 53.9668037-6.12403458 76.69006214 0.11968815 15.55943455 4.27385742 16.09304443 4.2613898 20.80326361-0.44882937 4.78253207-4.78253207 4.7351544-4.85234976-4.69027195-6.62024039-28.48573455-5.34356878-79.54511857-26.73529834-98.14911537-41.1178022l-6.22377431-4.81245412 7.34834172-7.66750931 7.34834294-7.67000334-6.11406097-4.21152054c-12.26302957-8.44797511-35.63459683-32.23845091-46.00505959-46.83040905-23.32169799-32.80946244-36.81900954-69.87034109-41.51426828-114.00028949-1.64820249-15.47216244-4.05941635-29.53051068-5.35853042-31.24603928-2.994693-3.94970302-9.83436129-4.01203988-13.72172621-0.12467495m104.04374847 48.74790987c-7.74231503 20.07266828-9.62490702 65.68874257-3.7003531 89.62882857 4.40850599 17.81106461 18.32472607 48.47611753 22.58611586 49.76026995 1.37142454 0.41392052 5.0468424-1.21184074 8.16870317-3.61307977l5.675204-4.36362355-7.34086091-13.65440132c-17.15776778-31.9167893-21.17728848-72.43864595-10.59238465-106.82150639C469.47813389 81.09826958 468.89714876 76.41547844 460.00533108 76.41547844c-5.16154375 0-7.0067329 2.26908448-11.662096 14.33762019m295.87113512 68.40416363c-0.5560499 1.80529349-2.29900652 8.89431169-3.8748973 15.75143439-1.5783848 6.8571227-5.53058182 18.33469967-8.78709236 25.50351038l-5.91956713 13.03601333-15.74894037-7.30345926c-31.59512891-14.65429501-53.66259651-18.78851706-99.27867082-18.5915304-34.16841936 0.14711618-44.52392172 1.1021262-61.09073074 5.62533474-23.4089701 6.39083892-66.07772908 26.26402653-66.07772907 30.77476747 0 5.7525025 33.47024009 35.69693491 49.12941557 43.95291018 22.94019231 12.09845775 36.51729635 15.41231836 63.24261987 15.4422404 30.89694842 0.03490884 49.65304942-3.5507429 69.51875743-13.28785726 17.29491035-8.47789716 42.43935627-30.21372955 53.62519487-46.35664324 6.78730501-9.79446443 7.05161535-9.91415259 13.99351736-6.32351403 3.88985893 2.01225375 7.60766646 3.65796345 8.26345609 3.65796345 2.97973138 0 16.60421067-41.06793172 17.15028696-51.69771923 0.57849234-11.29305793 0.26680434-11.92640634-6.26366995-12.67695009-4.08933839-0.4712718-7.28101805 0.53859548-7.88195041 2.49349917m50.099386 25.10205626c-6.17390384 8.57265008-17.93324677 22.16222052-26.13187197 30.19876913l-14.90613772 14.61439936 7.67997694 6.8621095 7.67997815 6.86210951-15.82125329 11.64713437c-32.47284042 23.90766994-82.58220001 43.57140571-123.50800235 48.47113194l-17.45449416 2.08955225 11.61721235 5.41089245c14.22790687 6.62522721 49.14936278 13.0011045 60.82891321 11.10604612l8.5925985-1.39635978v10.4652169c0 5.75499651-1.15449068 12.62209282-2.56830364 15.26270816-2.14690233 4.01203988-3.35126346 4.30876626-7.35582254 1.80529349-3.87988533-2.42118747-7.76974305-1.9698641-20.49656362 2.38378462-10.67466994 3.65048263-13.61201167 5.41588048-9.16610404 5.5081406 3.60061338 0.07480449 11.29305793-1.53848915 17.0979249-3.58565175 11.7443813-4.14419566 15.00837145-3.29391218 15.00837145 3.90731214 0 5.9893848-11.82916062 13.52723357-28.67524039 18.27485681-6.8571227 1.93246245-19.16503472 5.40341285-27.34869951 7.71488578-25.78028832 7.28101805-37.69672105 26.6330646-37.0932947 60.24044727 0.40644093 22.54871301 9.44288199 40.89338751 25.00979735 50.77013724 16.37730319 10.38542438 31.15377915 14.35756863 70.38400255 18.90820521 38.70908112 4.4932853 57.58487028 9.75706279 74.94959832 20.89801651 19.1425935 12.28547079 31.75471271 28.89965629 38.58939418 50.84244894 1.23926877 3.97214425 2.7553167 3.04206947 10.17098331-6.2337479 11.83913423-14.80390519 32.24593172-56.6448219 38.7589516-79.47031288 6.8521359-24.01738448 9.44537478-82.20069433 4.82492052-108.252775-8.69483225-49.00473939-34.10109569-97.29135229-69.53122506-132.15545815l-14.98593022-14.74904791 17.66644122-18.91319081c29.89954875-32.00904943 37.75905792-46.73565613 28.37103442-53.16389667-6.27115076-4.29380586-11.62220035-0.99739967-22.18715576 13.67684255m-63.75129452 52.92202758l-10.30563188 13.64692051 8.13379432-4.86980297c4.47583088-2.6780182 11.5025122-7.67000334 15.61678584-11.09607249 6.28611118-5.23136144 6.88455073-6.62772122 3.74024874-8.7397147-5.71011284-3.83749567-6.15894342-3.5482489-17.18519702 11.05866965m-269.30539421-0.24934992c-3.06700349 3.69287229-0.00498681 6.43073456 16.9508075 15.16546245l8.48288398 4.37110314-9.40797195-11.48006977c-10.20589215-12.45752221-11.73690049-13.22551918-16.02571953-8.05649582M458.50175077 726.97440817c-5.46574973 1.52602154-6.22876111 3.10939314-6.18387866 12.8365339l0.04737646 11.09607127 13.04349537 0.75303656 13.04100014 0.75553057v-12.59965161c0-9.2109865-0.9500232-12.59715758-3.53578128-12.59715757-1.94492886 0-5.03188199-0.44633657-6.85712271-0.99490687-1.82773472-0.5460763-6.12652737-0.20945427-9.55508932 0.75054375m-317.29777354 1.96238329c-4.01203988 1.04976293-4.36362354 6.25618913-4.36362354 64.54173393V856.88072906h27.42849081v-129.66195777l-9.35062186 0.28924555c-5.14159533 0.1595838-11.31300637 0.80290702-13.71424541 1.42877462m221.92142928 0c-4.01203988 1.04976293-4.36362354 6.25618913-4.36362354 64.54173393V856.88072906h24.93499165l0.07979129-21.8181177c0.09225891-25.22922523 1.1719451-24.90008281 16.36234278 4.98699834l8.55519567 16.83111936h13.68432336c7.52538115 0 13.68183057-0.68072485 13.68183057-1.51105992 0-0.83033505-5.04933642-10.49015091-11.22074746-21.46404125-6.17141104-10.97389034-11.22074624-21.14237964-11.22074624-22.59608947 0-1.45370985 5.05432322-11.99123722 11.23321386-23.41894494L436.08519231 767.11475792H407.13566676l-9.72464675 19.94799331c-5.34855558 10.97139632-10.62230668 19.94799331-11.71944607 19.94799453-1.09713939 0-1.99479933-17.95319398-1.99479932-39.89598784v-39.89598663l-8.10387229 0.28924555c-4.45588366 0.1595838-10.06625678 0.80290702-12.46749582 1.42877462m460.24010896 4.256403c-5.70762004 4.90969983-7.1762903 8.57514409-8.24350887 20.57136932-1.20435993 13.56214241-1.73796861 14.59694493-7.53036675 14.59694372-5.55052905 0-6.31852722 1.15947747-6.99925329 10.59737144-0.74804975 10.3230863-0.57101153 10.59737145 6.85712391 10.59737146H815.07213735v67.32447866h27.4284908V789.85796479l9.35062187-0.775479c9.11872637-0.75303655 9.35062187-1.0223349 9.35062187-10.74698163 0-9.95404822-0.01745442-9.97399666-9.35062187-9.45534839-9.27581738 0.51366025-9.35062187 0.44134977-9.35062187-9.08381754 0-10.49513772 3.81754724-13.64442772 13.57211602-11.19581221 6.00185242 1.50607311 8.75966313-3.41609435 8.83446762-15.77138161 0.03241605-5.2837247-0.97495844-5.61037312-17.27994871-5.61037312-14.67424222 0-18.37459532 0.91012756-24.26174761 5.97442317m69.95262638-0.11719415c-5.73255407 4.93214106-6.98678446 8.31332656-7.93182085 21.38674275-1.07719217 14.8886833-1.36643774 15.46717563-7.04413454 14.04338783-5.57546428-1.40134658-5.91956711-0.83282907-5.91956712 9.7819968 0 10.35799515 0.50368663 11.2681227 6.23374792 11.26812271h6.23374791v67.32447866h27.42849081v-67.32447866h19.94799331v-22.6908424l-9.97399665 0.99739967-9.97399666 0.99739966v-9.33316745c0-10.10365842 4.3287147-13.69679099 13.13076747-10.90407142 6.12902139 1.94742287 9.22096011-2.49100515 9.27332337-13.30032489L934.76009846 727.21877129h-17.31485757c-14.5794893 0-18.39204974 0.92508797-24.12709904 5.85722902m-597.02100816 35.35033807c-14.01097179 6.03426847-17.33231321 14.23788047-17.28992355 42.70865461 0.03989565 26.74028513 2.19926679 33.56997981 13.19310435 41.73120337 5.69764523 4.23396178 10.6347743 5.1964526 26.6305718 5.19645139 10.79685211 0 20.30955057-0.67823206 21.13739282-1.5060731 0.82784225-0.82534825 0.76550417-6.12154058-0.13714256-11.76682253l-1.64072289-10.26074943-13.60203807 0.57849234c-11.00381237 0.46877779-14.27528332-0.34410284-17.14280736-4.26139102-4.97702471-6.80226543-4.62294706-31.15377915 0.55854391-38.55448414 3.66544426-5.23136144 5.48569817-5.71011284 17.15527498-4.50575292l13.05346776 1.34898211 1.38638617-10.34054072c0.76301017-5.68517761 0.83781586-10.88661701 0.16706461-11.55736825-3.22908129-3.22908129-35.24062474-2.3538638-43.46917197 1.18939829m238.3336413 0.34410284c-8.57265008 2.63064174-12.66946928 2.95978416-13.29783088 1.07220536-0.50119385-1.5010863-5.86470983-2.72788867-11.92142074-2.72788866H498.3977374v89.76597114h27.42849202v-29.7748738c0-31.22609084 0.10223374-31.5103496 12.54479432-35.07854692 12.85897511-3.68788548 14.88369649 1.08716578 14.88369649 35.10846896V856.88072906h25.27161488l-0.79293341-41.36964491c-0.76550417-40.01068798-0.98243925-41.5242419-6.67759048-46.12973577-7.04912255-5.70013923-19.17002153-5.9046067-36.42503623-0.61090716m119.42115678 0.44384377c-13.76910268 6.43322736-17.29740436 15.55444773-17.14530016 44.32194826 0.18451903 35.39023372 8.84942924 44.66106429 41.48185346 44.38927192 10.68963157-0.08976611 19.83079917-0.64082922 20.30955057-1.22680115 0.4787514-0.58597194 0.37402487-5.81484059-0.2318955-11.61970635l-1.1046202-10.55498179-13.07092219 0.58098513c-18.48430987 0.82036144-21.32191186-2.27157728-21.32191186-23.23442588 0-21.76575442 3.23157531-25.53592522 20.90051053-24.38642256l12.65949445 0.82534824 1.65817731-9.97399665c0.91262035-5.48569817 1.15449068-10.50261853 0.5410895-11.14594054-0.61589398-0.64581601-8.63249415-1.52352753-17.81605142-1.94991688-12.44754861-0.57849234-19.28222887 0.43137494-26.85997449 3.97463825m74.04944679-0.32914243c-13.95860852 6.87707114-17.73626012 15.94842105-17.74623372 42.6139017-0.01496042 36.41506262 8.49784559 46.29679916 39.88601302 46.29679915 31.45050553 0 39.89598785-9.8543085 39.89598663-46.55113588 0-20.28212255-0.76799818-24.58590201-5.69764522-31.91679051-3.25401653-4.84237494-9.40049234-9.74958197-14.33762019-11.45014773-12.43258698-4.28133823-32.2259833-3.80757364-42.00050052 1.00737327m234.32160021-1.00737327c-14.58697011 5.11167329-18.81345107 13.7192322-19.79090231 40.31240116-1.4287746 38.82128967 8.05400303 50.01460668 41.9980065 49.57325813 10.28568466-0.13464857 21.66102789-1.43376262 25.27909448-2.88747247 5.84725541-2.3538638 6.3833581-3.56071651 4.83988215-10.91653905l-1.73547459-8.27343091-18.05044092 0.83033506c-19.14508629 0.87771151-25.29405611-1.51854073-25.29405611-9.86178932 0-4.2514162 2.17682435-4.68279114 23.68824207-4.68279114h23.68824206v-16.33241952c0-19.18498316-4.35863674-29.21383709-15.70655073-36.13080388-9.07384391-5.53556863-25.77779431-6.23374791-38.9160426-1.63074806m85.79133409 0.2418691c-14.92109934 6.58533156-17.37220884 11.95632837-18.29729681 40.0954673-0.96747762 29.48064142 2.03968178 38.42980917 15.22281252 45.30438629 8.65244259 4.51323373 31.39315545 5.72258046 47.33409446 2.5209284 7.65005612-1.53848915 9.35062187-2.95479615 9.35062309-7.79717228 0-12.75674139-1.93744927-14.11569952-17.61407917-12.34032686-19.18747595 2.16934476-26.37124707 0.19449264-27.87482738-7.67000456l-1.19687911-6.26117593H1104.31804528l-0.0049868-15.58436977c-0.00249401-19.44680069-5.62533475-31.49040116-17.44950857-37.39750189-10.26573622-5.12912771-28.09425525-5.53058182-38.64923705-0.8702307M181.72333865 802.10353872c0 39.65910433 2.81765357 50.63548867 14.1057247 54.92680052 7.56527681 2.87500485 22.55369982 1.13703504 35.25059835-4.08684438 7.06906977-2.9099137 8.40807948-2.87001805 9.61742742 0.27927074 0.90015274 2.34887578 4.87977779 3.65796345 11.11103169 3.65796346H261.51531313v-89.76597114H234.08682233v29.52053707c0 29.21632988-0.06483088 29.55295312-6.35094328 32.41549034-3.49339284 1.59334642-9.10376596 2.89495207-12.46749581 2.89495208H209.15183068v-64.83097949H181.72333865v34.9887808m270.80897454-32.92166978c-1.66565691 2.69297861-1.4287746 76.25619319 0.26431154 82.73181022 1.07469817 4.10430001 3.41360033 4.9670499 13.47736309 4.9670499H478.44974408v-89.76597114h-12.32037964c-6.7773314 0-12.89388396 0.93007477-13.59705125 2.06711102m535.6609803 19.30467132c2.15438314 2.15687714 3.91728697 6.08413772 3.91728696 8.72724707 0 4.03697513-1.80030669 4.80996011-11.22074624 4.8099601-10.34552874 0-11.22074624-0.49371303-11.22074624-6.31354042 0-4.21900015 1.86264356-7.06408297 5.61037312-8.57015728 7.81462672-3.14180918 8.49535158-3.06949749 12.9138324 1.34649053m87.27247195 0c2.15438314 2.15687714 3.91728697 6.14398179 3.91728698 8.86438964 0 4.33619551-1.43874943 4.85234976-11.6496284 4.18658531-13.30531169-0.86773791-15.85117411-4.42845442-8.4529619-11.8241738 6.1514626-6.15395662 10.89659184-6.51301987 16.18530332-1.22680115m-314.14599072 4.11926041c5.92954073 8.46293675 5.23884225 32.99647549-1.1046202 39.33993674-2.74284908 2.74284908-7.23114757 4.98699833-9.97399666 4.98699832-9.62490702 0-14.96099499-8.69732503-14.96099499-24.37894174 0-17.53428666 4.67032352-25.49104276 14.96099499-25.49104276 4.61047945 0 8.59259851 1.99230532 11.07861686 5.54304944M146.81435035 901.76371522c0 1.37142454-1.75791703 2.49349917-3.90731335 2.49349917-2.85006962 0-3.45349598 1.43376262-2.22669483 5.29868634 1.01236007 3.18918565 0.45132337 6.05920249-1.40882739 7.20870513-2.17433156 1.3415025-1.51355392 2.40871985 2.22669482 3.59562657 2.9248741 0.92758198 5.31614075 2.85505642 5.31614075 4.27884423 0 1.42628181-1.68311254 1.94742287-3.74024875 1.15698347-2.05713742-0.7879454-3.74024875-0.34659684-3.74024874 0.97994524 0 1.32903489 1.68311254 2.41620067 3.74024874 2.41620066s3.74024875 1.12207462 3.74024875 2.49349916-1.22929516 2.21422721-2.73287547 1.87012438c-1.50358031-0.34160882-3.71032671 1.90254043-4.90720703 4.98699832-2.5957329 6.70501971 1.13703504 7.60267966 5.17899817 1.24675081 2.31396693-3.63801501 2.53339481-3.22160048 1.32404808 2.49349916-0.79792022 3.7726648-0.53360867 6.8571227 0.59095996 6.85712271 4.18409131 0 8.02657379-6.20631988 8.02657378-12.96619688 0-4.54315577 1.30659365-6.98179766 3.74024875-6.98179766 2.05713742 0 3.74024875-1.12207462 3.74024875-2.49349916s-1.26170999-2.21173319-2.80518716-1.87012437c-1.54347596 0.34410284-3.31884741-0.77797179-3.94720901-2.49349917-0.68321887-1.86264356 0.94752919-3.11687395 4.05193675-3.11687395 4.58055862 0 5.15406294 1.39635978 4.85484255 11.84412102-0.18701305 6.51551388-0.82534825 9.32069983-1.42129501 6.23374791-0.59345275-3.08445913-2.12446109-5.61037312-3.40113271-5.61037312-3.22908129 0-2.74783588 5.14408933 1.14451585 12.16328985l3.28643258 5.92954073 4.10679281-5.86221705c2.25661686-3.22160048 4.10430001-10.09867162 4.10430001-15.28016259 0-5.17899818 1.12207462-9.41794676 2.49349916-9.41794675 1.38638495 0 2.49349917 6.65016244 2.49349916 14.96099498s1.10711421 14.96099499 2.49349917 14.96099621 2.49349917-6.65016244 2.49349916-14.96099621 1.10711421-14.96099499 2.49349917-14.96099498c1.37142454 0 2.49349917-1.12207462 2.49349916-2.49349917s-3.36622387-2.49349917-7.48049749-2.49349917c-4.98699833 0-7.48049749-1.24674958-7.48049749-3.74024875s2.49349917-3.74024875 7.48049749-3.74024874c4.11427362 0 7.48049749-1.12207462 7.48049749-2.49349916s-5.04933642-2.49349917-11.22074624-2.49349917c-10.80433171 0-11.22074624 0.27677795-11.22074624 7.48049749 0 4.11427362-1.25173638 7.48049749-2.78523873 7.4804975-1.62326847 0-2.2865389-2.5957329-1.59085241-6.23374792 0.79792022-4.1791045 0.07231169-6.23374791-2.20425361-6.2337479-1.86513757 0-3.3936519-1.12207462-3.39365191-2.49349917s-1.68311254-2.49349917-3.74024874-2.49349917-3.74024875 1.12207462-3.74024875 2.49349917m110.84351988 1.87012437c-1.40882739 2.40124026-2.13194191 10.89409782-1.60581403 18.87329516l0.95750402 14.51216562 9.11124676-0.41392052c18.65137447-0.85028349 20.329499-0.32914242 20.32949902 6.3010728 0 3.87988533 1.4138142 6.23374791 3.74024874 6.23374792 2.29900652 0 3.74024875-2.33640816 3.74024875-6.05920371 0-4.29629865 1.63324208-6.3833581 5.61037312-7.16382268l5.61037312-1.10462021-5.61037312-1.85516395c-6.26616396-2.06960382-7.69244455-8.7521823-1.87012437-8.75218232 2.05713742 0 3.74024875-1.12207462 3.74024874-2.49349917s-1.68311254-2.49349917-3.74024874-2.49349915-3.74024875-1.68311254-3.74024875-3.74024875 1.68311254-3.74024875 3.74024875-3.74024875c4.14419566 0 4.35614273-1.38887897 1.33900849-8.72724708-1.88259199-4.57806461-2.19677279-4.62793508-3.83250766-0.62337478-0.97994525 2.40124026-3.2240945 4.36362354-4.98699833 4.36362353-1.76290384 0-4.00705309-1.96238329-4.98699833-4.36362353-1.63573609-4.00456029-1.94991687-3.95468982-3.83250887 0.62337478-3.01713423 7.33836812-2.80518717 8.72724707 1.33900971 8.72724708 2.05713742 0 3.74024875 1.68311254 3.74024875 3.74024875s-1.68311254 3.74024875-3.74024875 3.74024875-3.74024875 1.12207462-3.74024996 2.49349915 1.68311254 2.49349917 3.74024996 2.49349917c5.55052905 0 4.53318215 6.6925521-1.2467508 8.20361323-4.43094843 1.15698347-4.98699833 0.07480449-4.98699833-9.6847511 0-6.04174806-1.0173481-10.98635795-2.25910966-10.98635795-1.24425557 0-1.67064493-2.26160367-0.94753041-5.02440118 1.00986729-3.8624297 0.38150569-4.66533671-2.72539344-3.47344441-2.22669483 0.85527028-4.04196193 0.311688-4.04196315-1.20934673 0-4.32123389-6.00185242-3.23406811-8.84444123 1.60332003m120.71279002 6.23374792c-0.18701305 5.82980099-0.82534825 8.07395024-1.421295 4.98699832-1.46368345-7.60018565-5.72008767-7.13639466-5.72008646 0.6233748 0 3.42856195 1.24425557 6.23374791 2.76529031 6.2337479 2.85256363 0 2.10700667 11.78926375-1.3390097 21.19474412-1.32654209 3.6255474-0.1645706 3.05204307 4.25640421-2.09204626 5.31364674-6.18886546 6.28860518-6.53546109 7.73732701-2.7603035 3.33131503 8.67737782 4.10679281 1.45869665 1.06721857-9.90667298-2.65806977-9.94158182-2.57578447-12.07352373 0.54358227-14.24037327 2.77775792-1.92747444 2.9124065-2.85755043 0.55355711-3.81256044-1.71303337-0.69568649-3.11687395-3.41609435-3.11687395-6.04424207 0-9.81690687-4.99946595-4.35614273-5.32611437 5.81733338m14.95102139-6.23374792c-0.19199985 2.40124026-0.09475292 8.57265008 0.21444107 13.71424541 0.32664842 5.41089367-0.57849234 9.35062187-2.14440953 9.35062187-1.48861869 0-2.70794023 1.12207462-2.70794024 2.49349916 0 1.38638495 6.65016244 2.49349917 14.96099499 2.49349916s14.96099499-1.10711421 14.96099499-2.49349916c0-1.37142454-1.12207462-2.49349917-2.49349917-2.49349916-3.62056059 0-3.06451069-14.27777612 0.62337479-16.00078431 2.49349917-1.16197027 2.49349917-1.74544942 0-2.90741968-1.71303337-0.80041301-3.11687395-3.04456226-3.11687395-4.98699834 0-4.89972622-4.20403973-4.42346762-7.35582254 0.83033505-2.49349917 4.15666327-2.74284908 4.15666327-5.23634824 0-1.43874943-2.39874625-3.68289868-4.36362354-4.98699833-4.36362354-1.30160686 0-2.52591521 1.96487729-2.71791384 4.36362354m101.68240385-2.63313453c-0.87521872 0.87771151-1.61080084 4.4932853-1.63074806 8.0365474-0.02992204 5.07427043-0.55106309 5.64777597-2.45609752 2.70045942-1.88259199-2.9149005-2.42617427-2.22669483-2.45609632 3.11687395-0.01994843 3.7726648 1.21184074 6.8571227 2.73786228 6.8571227 2.68799181 0 2.29401972 5.51811421-1.42129501 19.94799454l-1.60332004 6.23374791 4.00206628-5.35853041 4.00206627-5.3610232 6.11904779 6.11904656c5.07925845 5.07925845 8.1263135 5.9893848 17.94072637 5.35853041 11.70448566-0.75054375 11.82916062-0.85028349 12.59466479-10.10864645l0.77547778-9.35062186h-13.8663484c-13.42250583 0-13.8688424 0.21693387-14.0209466 6.85712271l-0.15958381 6.85712391-2.54087562-6.23374913c-1.39635978-3.42856195-2.02472138-11.00131837-1.39386576-16.83111936 0.63085561-5.8273082 0.19698666-10.59737145-0.96249083-10.59737145-1.16197027 0-1.50856711-1.56841119-0.77049218-3.48840482 1.44373623-3.76268997-2.26908448-7.37327696-4.88975141-4.75510283m22.09489686 0.76301016c-0.84778947 1.37142454-3.71780752 2.49349917-6.38086531 2.49349917s-4.83988214 1.12207462-4.83988093 2.49349916 6.10408615 2.49349917 13.567128 2.49349916 14.2603217-1.12207462 15.10811238-2.49349916c0.87521872-1.4138142-1.22181435-2.49349917-4.83988214-2.49349916-3.50835325 0-6.3808641-1.12207462-6.3808641-2.49349917s-1.05474973-2.49349917-2.34638297-2.49349917-3.03957546 1.12207462-3.88736493 2.49349917m198.23318599 0c0 1.37142454-2.21672122 2.49349917-4.92466024 2.49349917-4.22398817 0-4.58803822 0.88768512-2.55583725 6.2337479 1.52352753 4.00705309 1.5010863 6.23374791-0.06233687 6.23374792-1.3365157 0-2.43116229 1.1719451-2.4311623 2.6032137 0 1.43126862 1.84768315 2.27157728 4.10430001 1.87012438 2.25911088-0.40394691 4.59551903 0.67075125 5.19645261 2.38627863 0.67075125 1.91999485-0.32914242 2.57329167-2.6057065 1.70056575-2.03469498-0.7804658-4.43842802-0.22192189-5.34356878 1.24425679-0.96249083 1.55843758 0.48124541 2.66305658 3.48840482 2.66305657 4.04196193 0 5.13411451 1.59085242 5.1341145 7.48049749 0 4.15666327-1.32903489 7.48049749-2.99219899 7.48049871-2.26659047 0-2.29152571 0.70067329-0.10472653 2.88747125 3.58565174 3.58565174 10.56994341-1.39386576 10.59487866-7.55530197 0.00997361-2.73786228 1.48113908-1.83521553 4.51822052 2.76778431 6.10907295 9.26334976 10.42532003 4.68279114 10.42532004-11.06615045 0-16.79870452 4.57806461-14.98593022 5.48569817 2.17183876 1.07469817 20.29957697 6.98179766 21.16980767 6.98179765 1.0273217 0-8.45046913 1.1046202-15.16795525 2.49349917-15.16795645 1.37142454 0 2.49349917-1.12207462 2.49349917-2.49349917s-3.92726179-2.49349917-8.72724709-2.49349917c-6.09411254 0-8.72724707-1.12706143-8.72724707-3.74024875 0-2.47604475 2.47604475-3.74024875 7.3333813-3.74024874 4.03448112 0 8.02657379-1.12207462 8.87436327-2.49349916 0.94254239-1.52352753-2.88248566-2.49349917-9.82688047-2.49349917H732.78666372l-0.16955864 20.57136811c-0.13714258 16.86852221-0.66327043 19.5440464-2.91988731 14.85876246-1.59085242-3.303887-4.20403973-5.15655695-6.19385225-4.39354557-1.89505961 0.72810132-2.75781071 0.21194706-1.91999362-1.14202305 0.83781586-1.35646413 3.13931518-2.46607114 5.11666008-2.46607114 1.97734491 0 3.59313257-1.12207462 3.59313257-2.49349916s-1.96238329-2.52840801-4.36362354-2.56830366c-4.0968192-0.07231169-4.10180601-0.22940148-0.08976612-2.56830486 3.36123707-1.95989049 3.7726648-3.80757364 1.93246124-8.65244138-1.70056697-4.47084407-1.50607311-6.16393023 0.71314091-6.17390383 1.68061853-0.00997361-0.1595838-1.69308615-4.08684559-3.74024875-8.45046913-4.40850599-9.0663631-4.4907925-9.06636311-1.23178917m110.31489924 2.45859033c-1.70305977 2.72539466-3.09443274 11.14095494-3.09443274 18.70124373V936.67270352h9.97399665c9.14864842 0 9.99893189-0.56851751 10.26074943-6.8571227 0.15709101-3.77017078 0.01246762-9.10127195-0.32166161-11.84412103s-0.74306294-6.66013605-0.91012756-8.70729865c-0.16706461-2.04716259-2.95479615-5.13162172-6.19634506-6.8571227-7.20870636-3.83500166-6.04922887-4.05193675-9.71217911 1.81526711M862.44862146 903.0104648c0 2.05713742-1.68311254 3.74024875-3.74024874 3.74024875s-3.74024875-1.12207462-3.74024875-2.49349916-1.75043621-2.49349917-3.88736492-2.49349917-3.19417245 1.12207462-2.34638298 2.49349917c0.84778947 1.37142454 0.35158365 2.49349917-1.0996334 2.49349916s-2.64061535 1.12207462-2.64061535 2.49349916 2.24414925 2.49349917 4.98699833 2.49349917c2.77027711 0 4.98699833 1.66316411 4.98699832 3.74024875 0 2.05713742-1.68311254 3.74024875-3.74024875 3.74024875s-3.74024875 1.12207462-3.74024874 2.49349915 1.68311254 2.49349917 3.74024874 2.49349917 3.74024875 1.68311254 3.74024875 3.74024875c0 2.07708464-2.21672122 3.74024875-4.98699832 3.74024874-2.74284908 0-4.98699833 1.12207462-4.98699833 2.49349917s2.24414925 2.49349917 4.98699833 2.49349916c3.65796345 0 4.98699833 1.66316411 4.98699832 6.23374913 0 3.42856195 1.12207462 6.23374791 2.49349917 6.23374792s2.49349917-2.80518717 2.49349917-6.23374792c0-4.5705838 1.32903489-6.23374791 4.98699832-6.23374913 2.74284908 0 4.98699833-1.12207462 4.98699833-2.49349916s-2.24414925-2.49349917-4.98699833-2.49349917c-6.84216229 0-6.32102002-6.87208433 0.6233748-8.23602683l5.61037312-1.10462021-5.61037312-1.85516395c-7.0890182-2.34139617-7.35083573-8.7521823-0.35657046-8.75218232 3.76518398 0 4.82492052-1.11708782 3.74024997-3.94471499-0.83282907-2.16934476-1.51355392-4.97453071-1.51355514-6.23374914 0-1.25921721-1.12207462-2.2890317-2.49349917-2.2890317s-2.49349917 1.68311254-2.49349917 3.74024875m216.23375767-2.20924041c-0.84280267 0.84280267-5.23634825 1.71552737-9.7670364 1.93744927l-8.23353404 0.40394692-1.24674959 18.63391884c-0.68571287 10.25077582-2.15438314 20.04025344-3.26399014 21.75328803-1.10960701 1.71552737-0.96747762 3.11687395 0.31916761 3.11687395 5.0368688 0 7.69992537-7.11145942 8.42303988-22.51131138 0.60841438-12.97866327 1.59833324-16.24764143 5.1191541-16.91839147 2.40124026-0.45880419 4.36362354 0.37153087 4.36362353 1.84518914 0 1.47116427-1.56342439 2.67552419-3.47593719 2.67552419-2.10451388 0-3.33380903 2.3538638-3.11687395 5.95447596 0.32914242 5.47821735 1.30908767 5.9120863 12.20318426 5.39842606 6.51551388-0.30669998 11.84412103 0.38150569 11.84412104 1.52602152 0 1.14451585-5.61037312 2.08207143-12.46749582 2.08207145s-12.46749582 1.12207462-12.46749583 2.49349916 1.96487729 2.52840801 4.36362354 2.57329168c4.0195207 0.07231169 3.99458546 0.35906446-0.30420719 3.61307977-4.28383103 3.24404292-4.33868831 3.8649237-0.67075124 7.53286198 2.89495207 2.89245927 7.63260048 3.79011922 17.13532655 3.2440417 11.34292841-0.65329683 13.24546762-1.5010863 13.91622007-6.22377309 0.69319248-4.87479099-0.52363506-5.56798347-11.22074745-6.40580054l-11.99871804-0.94254239 13.09087061-0.44882936c7.20122554-0.2468559 13.09087061-1.57090399 13.09087184-2.94232975 0-1.37142454-2.31147414-2.49349917-5.13411573-2.49349916-2.82264159 0-4.47084407-1.07220415-3.66045625-2.38378462 0.81038783-1.31158047 3.40113271-1.66316411 5.75748932-0.78046579 3.65796345 1.36893053 3.81006643 1.0223349 1.04477611-2.38129183-2.52342121-3.10690034-2.56830365-4.39853238-0.19698664-5.86470984 2.11199348-1.30409965 1.38389216-2.49100515-2.37381101-3.88237813-6.39333171-2.36383741-13.25294843-0.28924556-12.32785923 3.73276794 0.35657045 1.55843758-0.46628379 3.11437995-1.82773595 3.45598998-1.36145093 0.34410284-2.47604475-0.77797179-2.47604473-2.49349917 0-1.71303337-1.68311254-4.48331169-3.74024875-6.15395539-3.04206947-2.47105794-1.06472455-3.05204307 10.59737144-3.11687396 7.88693842-0.04488245 14.33762019-0.99739967 14.33762142-2.11947428 0-1.12207462-3.92726179-1.730489-8.72724708-1.35147734-4.7999865 0.37901168-8.72724707-0.38649249-8.72724829-1.70056575 0-2.65059018-5.78242454-3.25651054-8.18117078-0.8577643M939.74709678 904.25721439c0 1.37142454 1.12207462 2.49349917 2.49349917 2.49349916s2.49349917 2.80518717 2.49349917 6.23374791-1.34648931 6.23374791-2.992199 6.23374792c-2.32643455 0-2.32643455 0.66576445 0 2.99219899 3.63053541 3.63053541 3.94471621 13.57959683 0.49869983 15.70904474-5.14159533 3.17921204-2.27407129 6.27613757 4.36362476 4.71271439 7.27353723-1.71552737 13.60951888-5.95946276 8.89431046-5.95946398-3.54575611 0-5.81484059-12.03861367-2.48103154-13.15071469 1.57339799-0.52363506 1.72051419-2.23916244 0.3790129-4.40601318-2.90492689-4.70273957-3.37869149-12.36526209-0.7655054-12.3652621 1.14202305 0 2.07708464-1.12207462 2.07708585-2.49349916s-3.36622387-2.49349917-7.48049749-2.49349917-7.48049749 1.12207462-7.48049871 2.49349917m17.45449537 12.67445608c0 11.02874639 0.85028349 14.8861905 3.11687395 14.13065993 1.75542303-0.58597194 3.25401653-5.58045108 3.42856074-11.4277065 0.4737646-15.78135643 0.46379099-15.76390201 7.7921855-14.91860533 6.39582572 0.73558213 6.90699317 1.66815092 7.61015926 13.87881601 1.03978932 18.05293371 5.48071136 16.53688699 5.48071136-1.87012437v-14.96099499h-27.42849081v15.16795525m-802.25843427-4.91219262c-1.54846276 5.91956711-7.1713035 6.138995-8.68735143 0.34160882-0.81786743-3.12684756 0.42389535-4.46087046 4.38855876-4.70523237 4.2613898-0.26181754 5.24632186 0.74056894 4.29879267 4.36362355M266.50231146 909.24421271c0 1.37142454-1.75043621 2.49349917-3.88736493 2.49349917s-3.19417245-1.12207462-2.34638297-2.49349917c0.84778947-1.37142454 2.5957329-2.49349917 3.88736491-2.49349916s2.34638299 1.12207462 2.34638299 2.49349916m453.99389466 5.80735978c-2.17433156 2.17433156-3.43853556 1.9698641-5.1765054-0.84030866-1.64321568-2.65806977-1.07968497-4.15666327 1.97485213-5.25629667 5.14658213-1.85017595 7.21369315 2.08456545 3.20165327 6.09660533M833.77338108 909.24421271c-0.84778947 1.37142454-2.66305658 2.49349917-4.03448232 2.49349917s-1.80030669-1.12207462-0.95251602-2.49349917c0.84778947-1.37142454 2.66305658-2.49349917 4.03448112-2.49349916s1.80030669 1.12207462 0.95251722 2.49349916m133.40220773 11.70697847c0 9.30823221-1.37391855 13.14074109-6.70003291 18.70124494-7.18626512 7.50293872-5.26627028 9.36059548 3.39863991 3.28892537 4.70273957-3.29391218 5.45328333-3.27396496 6.77483741 0.16706461 1.8127743 4.72767481 14.32265979 3.87489731 15.95340784-1.08716578 0.7929322-2.40871985-0.34659684-2.9149005-3.96217062-1.76789185-4.6428955 1.47365827-5.22138783 0.22690869-6.81971986-14.69917745-1.21682754-11.38282405-2.78773153-16.3099783-5.1939586-16.30997831-2.44861671 0-3.45100319 3.40113271-3.45100317 11.70697847M406.1382671 919.21820938c0 4.11427362-1.12207462 7.48049749-2.49349917 7.48049749s-2.49349917-3.36622387-2.49349917-7.48049749 1.12207462-7.48049749 2.49349917-7.4804975 2.49349917 3.36622387 2.49349917 7.4804975m103.82432058-3.74024875c0.91012756 2.3688242-0.03241605 3.74024875-2.57079765 3.74024875-2.2042536 0-4.00705309 1.12207462-4.00705309 2.49349915 0 1.40633339 7.06408297 2.49349917 16.20774457 2.49349917s16.20774457-1.08716578 16.20774457-2.49349917c0-1.37142454-1.12207462-2.49349917-2.49349916-2.49349915s-2.49349917-1.68311254-2.49349917-3.74024875-1.00238646-3.74024875-2.22669483-3.74024875-2.87251084 1.68311254-3.66295025 3.74024875c-0.7879454 2.05713742-3.15178279 3.74024875-5.25380267 3.74024875-2.09952586 0-3.81754724-1.68311254-3.81754724-3.74024875s-1.64820249-3.74024875-3.66295025-3.74024875c-2.22918883 0-3.09941953 1.46119066-2.22669483 3.74024875M832.52663149 919.21820938c0 1.37142454-1.12207462 2.49349917-2.49349916 2.49349915s-2.49349917-1.12207462-2.49349916-2.49349915 1.12207462-2.49349917 2.49349916-2.49349917 2.49349917 1.12207462 2.49349916 2.49349917m7.48049749 0c0 1.37142454-1.12207462 2.49349917-2.49349915 2.49349915s-2.49349917-1.12207462-2.49349917-2.49349915 1.12207462-2.49349917 2.49349917-2.49349917 2.49349917 1.12207462 2.49349915 2.49349917m-225.02832961 3.11687395c-1.85516396 5.04933642 0.69319248 9.35062187 5.54055544 9.35062186 4.73764842 0 8.55020885-6.32102002 6.15395661-10.19841133-2.07209782-3.35625026-10.37046275-2.75282269-11.69451205 0.84778947M832.52663149 929.19220603c0 1.37142454-1.12207462 2.49349917-2.49349916 2.49349916s-2.49349917-1.12207462-2.49349916-2.49349916 1.12207462-2.49349917 2.49349916-2.49349916 2.49349917 1.12207462 2.49349916 2.49349916m7.48049749 0c0 1.37142454-1.12207462 2.49349917-2.49349915 2.49349916s-2.49349917-1.12207462-2.49349917-2.49349916 1.12207462-2.49349917 2.49349917-2.49349916 2.49349917 1.12207462 2.49349915 2.49349916m-312.93414998 8.72724708c0 3.58565174-1.92498164 5.20892021-6.8571227 5.77494494-5.35104959 0.61589398-6.8571227-0.24934992-6.8571227-3.947209 0-6.28112437 2.45110951-8.4280279 8.62501334-7.54283559 3.18419885 0.45631018 5.08923206 2.5957329 5.08923206 5.71509965m180.77869185-3.944715c0 1.25921721-0.77049098 4.34616912-1.71303336 6.8571227-1.50856711 4.02201471-1.20934673 4.15915607 2.49349916 1.14700986 4.59801305-3.74274275 5.69016562-10.29316426 1.71303337-10.29316548-1.37142454 0-2.49349917 1.02981571-2.49349917 2.28903292m-316.27294583 6.55540953c-4.27635143 9.38553071-3.58814576 10.13108767 3.33879584 3.62305459 6.9294344-6.51052586 7.93431487-9.97399666 2.89495207-9.97399787-1.83770832 0-4.6428955 2.85755043-6.23374791 6.35094328m16.82862657-1.78285227c1.34648931 2.51344759 4.18907811 6.01681405 6.32102001 7.78719869 3.18669164 2.64310935 3.8624297 2.60820051 3.79760003-0.20696148-0.10722053-4.66533671-6.04174806-12.14832822-9.63238783-12.14832822-2.06960382 0-2.21173319 1.34399651-0.48623221 4.56809101M1094.34404862 941.65970307c0 1.37142454-3.92726179 2.49349917-8.7272483 2.49349916s-8.72724707-1.12207462-8.72724707-2.49349916 3.92726179-2.49349917 8.72724707-2.49349917 8.72724707 1.12207462 8.7272483 2.49349917m-840.30923298 2.49349916c0 1.37142454 4.4209736 2.49349917 9.82688048 2.49349917s10.52007295-1.12207462 11.36786242-2.49349917c0.94254239-1.52352753-2.88248566-2.49349917-9.82688048-2.49349916-6.25120234 0-11.36786242 1.12207462-11.36786242 2.49349916m568.5178192 0c0 1.37142454 4.4209736 2.49349917 9.82688048 2.49349917s10.52007295-1.12207462 11.36786241-2.49349917c0.94254239-1.52352753-2.88248566-2.49349917-9.82688046-2.49349916-6.25120234 0-11.36786242 1.12207462-11.36786243 2.49349916" fill="#13227a" p-id="1875"></path></svg>